<svg xmlns="http://www.w3.org/2000/svg" xmlns:xlink="http://www.w3.org/1999/xlink" version="1.1" width="256" height="256" viewBox="0 0 256 256" xml:space="preserve">

<defs>
</defs>
<g style="stroke: none; stroke-width: 0; stroke-dasharray: none; stroke-linecap: butt; stroke-linejoin: miter; stroke-miterlimit: 10; fill: none; fill-rule: nonzero; opacity: 1;" transform="translate(1.4065934065934016 1.4065934065934016) scale(2.81 2.81)" >
	<path d="M 89.661 53.829 c 0.866 2.075 0.021 4.49 -1.976 5.524 c -15.366 7.961 -33.806 22.161 -40.926 22.23 c -0.369 0.031 -0.738 0.048 -1.106 0.051 c -3.223 0.031 -6.415 -0.933 -9.513 -1.867 c -3.4 -1.026 -6.913 -2.087 -10.382 -1.794 l -8.592 0.724 l -0.255 -26.395 l 4.685 -0.395 c 2.902 -0.248 5.355 0.682 7.715 1.581 c 2.21 0.841 4.295 1.632 6.682 1.448 l 15.33 -2.49 c 5.502 -0.846 8.559 1.789 10.43 4.214 l 22.906 -5.397 C 86.729 50.785 88.843 51.869 89.661 53.829 L 89.661 53.829 z" style="stroke: none; stroke-width: 1; stroke-dasharray: none; stroke-linecap: butt; stroke-linejoin: miter; stroke-miterlimit: 10; fill: rgb(238,198,179); fill-rule: nonzero; opacity: 1;" transform=" matrix(1 0 0 1 0 0) " stroke-linecap="round" />
	<path d="M 35.622 65.938 c 8.649 1.144 18.996 -2.327 25.304 -6.21 c 1.043 -0.642 1.404 -1.988 0.827 -3.068 h 0 C 60.681 59.878 44.779 64.298 35.622 65.938 z" style="stroke: none; stroke-width: 1; stroke-dasharray: none; stroke-linecap: butt; stroke-linejoin: miter; stroke-miterlimit: 10; fill: rgb(205,149,123); fill-rule: nonzero; opacity: 1;" transform=" matrix(1 0 0 1 0 0) " stroke-linecap="round" />
	<path d="M 87.572 56.164 C 71.666 64.13 52.576 78.336 45.207 78.408 c -0.382 0.031 -0.763 0.048 -1.144 0.052 c -3.335 0.032 -6.639 -0.931 -9.845 -1.864 c -3.518 -1.025 -7.154 -2.084 -10.744 -1.791 l -6.339 0.518 l 0.033 3.375 l 8.592 -0.724 c 3.469 -0.292 6.982 0.768 10.382 1.794 c 3.098 0.934 6.29 1.898 9.513 1.867 c 0.368 -0.004 0.737 -0.02 1.106 -0.051 c 7.12 -0.069 25.56 -14.269 40.926 -22.23 c 1.986 -1.029 2.83 -3.422 1.987 -5.49 C 89.298 54.825 88.579 55.659 87.572 56.164 z" style="stroke: none; stroke-width: 1; stroke-dasharray: none; stroke-linecap: butt; stroke-linejoin: miter; stroke-miterlimit: 10; fill: rgb(205,149,123); fill-rule: nonzero; opacity: 1;" transform=" matrix(1 0 0 1 0 0) " stroke-linecap="round" />
	<path d="M 27.559 84.749 l -11.912 4.816 c -1.38 0.558 -2.95 -0.108 -3.508 -1.488 L 0.197 58.541 c -0.558 -1.38 0.108 -2.95 1.488 -3.508 l 11.912 -4.816 c 1.38 -0.558 2.95 0.108 3.508 1.488 l 11.942 29.536 C 29.605 82.62 28.939 84.191 27.559 84.749 z" style="stroke: none; stroke-width: 1; stroke-dasharray: none; stroke-linecap: butt; stroke-linejoin: miter; stroke-miterlimit: 10; fill: rgb(52,57,54); fill-rule: nonzero; opacity: 1;" transform=" matrix(1 0 0 1 0 0) " stroke-linecap="round" />
	<path d="M 13.598 50.217 l -1.228 0.496 c 0.048 0.089 0.102 0.172 0.141 0.268 l 11.942 29.536 c 0.558 1.38 -0.108 2.95 -1.488 3.508 l -10.685 4.32 c 0.645 1.189 2.083 1.739 3.367 1.22 l 11.912 -4.816 c 1.38 -0.558 2.046 -2.128 1.488 -3.508 L 17.106 51.705 C 16.548 50.325 14.977 49.659 13.598 50.217 z" style="stroke: none; stroke-width: 1; stroke-dasharray: none; stroke-linecap: butt; stroke-linejoin: miter; stroke-miterlimit: 10; fill: rgb(46,50,47); fill-rule: nonzero; opacity: 1;" transform=" matrix(1 0 0 1 0 0) " stroke-linecap="round" />
	<path d="M 51.284 1.685 l 5.367 10.875 c 0.378 0.766 1.109 1.297 1.954 1.42 l 12.002 1.744 c 2.129 0.309 2.979 2.926 1.438 4.427 l -8.684 8.465 c -0.612 0.596 -0.891 1.455 -0.746 2.297 l 2.05 11.953 c 0.364 2.12 -1.862 3.737 -3.766 2.736 l -10.735 -5.644 c -0.756 -0.398 -1.659 -0.398 -2.416 0 l -10.735 5.644 c -1.904 1.001 -4.13 -0.616 -3.766 -2.736 l 2.05 -11.953 c 0.144 -0.842 -0.135 -1.701 -0.746 -2.297 l -8.684 -8.465 c -1.54 -1.502 -0.69 -4.118 1.438 -4.427 l 12.002 -1.744 c 0.845 -0.123 1.576 -0.654 1.954 -1.42 l 5.367 -10.875 C 47.582 -0.244 50.332 -0.244 51.284 1.685 z" style="stroke: none; stroke-width: 1; stroke-dasharray: none; stroke-linecap: butt; stroke-linejoin: miter; stroke-miterlimit: 10; fill: rgb(255,212,105); fill-rule: nonzero; opacity: 1;" transform=" matrix(1 0 0 1 0 0) " stroke-linecap="round" />
	<path d="M 72.046 20.151 c 1.54 -1.502 0.69 -4.118 -1.438 -4.427 L 58.606 13.98 c -0.845 -0.123 -1.576 -0.654 -1.954 -1.42 L 51.284 1.685 c -0.952 -1.929 -3.703 -1.929 -4.655 0 l -0.112 0.227 c 5.732 5.47 9.37 13.589 9.37 22.659 c 0 5.955 -1.572 11.497 -4.269 16.153 l 9.282 4.88 c 1.904 1.001 4.13 -0.616 3.766 -2.736 l -2.05 -11.953 c -0.144 -0.842 0.135 -1.701 0.746 -2.297 L 72.046 20.151 z" style="stroke: none; stroke-width: 1; stroke-dasharray: none; stroke-linecap: butt; stroke-linejoin: miter; stroke-miterlimit: 10; fill: rgb(245,195,70); fill-rule: nonzero; opacity: 1;" transform=" matrix(1 0 0 1 0 0) " stroke-linecap="round" />
</g>
</svg>